<svg width="500" height="500" viewBox="0 0 500 500" fill="none" xmlns="http://www.w3.org/2000/svg">
<rect width="500" height="500" rx="250" fill="#EBC916"/>
<path d="M392.206 279.342V208.571H406.809V244.069C423.501 239.757 427.292 231.946 432.197 216.21H445.79C444.877 229.113 442.042 237.794 427.479 249.236C440.365 262.054 445.276 269.827 445.79 285.97C445.79 285.97 421.635 258.68 417.593 257.774C413.552 256.868 411.419 256.729 406.809 257.774V279.342H392.206Z" fill="black" stroke="black"/>
<path d="M383.797 228.079L372.076 234.248C372.076 234.248 366.773 228.767 362.423 228.685C358.305 228.606 354.576 229.538 352.953 233.323C350.51 239.019 360.047 239.954 366.062 242.268C372.076 244.581 385.031 249.306 385.031 262.317C385.031 274.857 372.503 281.903 359.584 281.903C344.205 281.903 337.222 266.789 337.222 266.789L350.022 261.237C350.022 263.55 364.672 274.95 369.917 263.55C373.074 256.688 361.126 254.451 354.649 251.675C348.171 248.899 339.372 242.564 339.689 233.323C340.042 223.04 349.295 215.695 359.584 215.695C375.586 215.695 383.797 228.079 383.797 228.079Z" fill="black" stroke="black"/>
<path d="M249.567 217.234V209.042H264.26L264.261 217.234H277.264V229.977H264.261C264.261 229.977 263.309 258.641 264.261 262.095C265.213 265.549 268.135 267.946 270.112 267.946H278.174V279.845H267.316C263.274 279.845 249.567 278.791 249.567 262.095V229.977H236.434V217.234H249.567Z" fill="black" stroke="black"/>
<path d="M179.14 217.105H196.96L206.606 234.388L217.592 217.105H234.473L216.386 245.642L236.483 279.806H219.468L206.606 259.308L192.539 279.806H176.461L196.96 245.642L179.14 217.105Z" fill="black" stroke="black"/>
<path d="M52.1338 216.546V279.266H67.8135V238.666C67.8135 238.666 67.8135 229.426 79.8536 229.426C91.8937 229.426 91.8937 238.666 91.8937 238.666V279.266H107.294C107.294 279.266 108.1 259.31 107.294 238.666C106.487 218.022 78.3073 206.618 65.0135 221.306V216.546H52.1338Z" fill="black" stroke="black"/>
<path fill-rule="evenodd" clip-rule="evenodd" d="M129.858 255.874H177.708C178.615 238.046 165.367 216.445 145.629 216.806C128.162 217.125 114.313 230.97 113.998 248.437C113.67 266.547 123.066 281.234 146.794 281.234C170.522 281.234 176.275 259.997 176.275 259.997H161.4C160.418 268.05 133.789 274.41 129.858 255.874ZM129.589 241.65H162.152C162.152 241.65 159.063 229.293 146.707 229.293C134.351 229.293 129.589 241.65 129.589 241.65Z" fill="black"/>
<path d="M177.708 255.874V256.374H178.183L178.208 255.9L177.708 255.874ZM129.858 255.874V255.374H129.24L129.369 255.978L129.858 255.874ZM145.629 216.806L145.62 216.306L145.629 216.806ZM113.998 248.437L114.497 248.446L113.998 248.437ZM176.275 259.997L176.757 260.127L176.928 259.497H176.275V259.997ZM161.4 259.997V259.497H160.957L160.904 259.936L161.4 259.997ZM162.152 241.65V242.15H162.793L162.637 241.528L162.152 241.65ZM129.589 241.65L129.122 241.47L128.86 242.15H129.589V241.65ZM177.708 255.374H129.858V256.374H177.708V255.374ZM145.638 217.306C155.306 217.129 163.413 222.327 169.01 229.818C174.61 237.314 177.656 247.058 177.209 255.849L178.208 255.9C178.667 246.863 175.543 236.892 169.811 229.22C164.076 221.543 155.69 216.122 145.62 216.306L145.638 217.306ZM114.497 248.446C114.808 231.249 128.44 217.62 145.638 217.306L145.62 216.306C127.884 216.63 113.818 230.692 113.498 248.428L114.497 248.446ZM146.794 280.734C135.037 280.734 126.906 277.099 121.749 271.295C116.583 265.481 114.335 257.419 114.497 248.446L113.498 248.428C113.332 257.566 115.619 265.902 121.001 271.959C126.392 278.025 134.823 281.734 146.794 281.734V280.734ZM176.275 259.997C175.792 259.866 175.792 259.866 175.792 259.866C175.792 259.866 175.792 259.866 175.792 259.866C175.792 259.866 175.792 259.867 175.792 259.868C175.791 259.87 175.79 259.873 175.789 259.877C175.787 259.886 175.783 259.9 175.777 259.919C175.766 259.956 175.75 260.013 175.727 260.088C175.68 260.238 175.609 260.46 175.509 260.744C175.31 261.312 174.998 262.127 174.55 263.107C173.654 265.068 172.215 267.683 170.048 270.296C165.721 275.512 158.484 280.734 146.794 280.734V281.734C158.832 281.734 166.335 276.337 170.817 270.934C173.054 268.238 174.536 265.544 175.46 263.523C175.922 262.512 176.245 261.668 176.453 261.075C176.557 260.778 176.633 260.544 176.682 260.382C176.707 260.302 176.726 260.239 176.738 260.196C176.744 260.175 176.749 260.158 176.752 260.147C176.754 260.141 176.755 260.136 176.756 260.133C176.756 260.132 176.757 260.13 176.757 260.129C176.757 260.129 176.757 260.128 176.757 260.128C176.757 260.128 176.757 260.127 176.275 259.997ZM161.4 260.497H176.275V259.497H161.4V260.497ZM129.369 255.978C130.379 260.743 132.86 263.939 136.045 265.897C139.215 267.846 143.048 268.549 146.754 268.406C150.46 268.263 154.078 267.275 156.846 265.798C159.581 264.337 161.62 262.322 161.896 260.057L160.904 259.936C160.689 261.698 159.031 263.497 156.375 264.915C153.75 266.317 150.281 267.27 146.716 267.407C143.15 267.544 139.527 266.864 136.568 265.045C133.623 263.234 131.302 260.274 130.347 255.771L129.369 255.978ZM162.152 241.15H129.589V242.15H162.152V241.15ZM146.707 229.793C152.689 229.793 156.415 232.774 158.663 235.772C159.791 237.275 160.544 238.78 161.015 239.911C161.25 240.476 161.415 240.946 161.519 241.272C161.572 241.435 161.609 241.562 161.634 241.647C161.646 241.69 161.654 241.722 161.66 241.743C161.663 241.753 161.665 241.761 161.666 241.766C161.667 241.768 161.667 241.77 161.667 241.771C161.667 241.771 161.667 241.771 161.667 241.771C161.667 241.771 161.667 241.771 161.667 241.771C161.667 241.771 161.667 241.771 162.152 241.65C162.637 241.528 162.637 241.528 162.637 241.528C162.637 241.528 162.637 241.527 162.637 241.527C162.637 241.526 162.637 241.525 162.636 241.524C162.636 241.522 162.635 241.519 162.634 241.516C162.632 241.509 162.63 241.499 162.626 241.486C162.619 241.46 162.609 241.423 162.596 241.375C162.569 241.279 162.528 241.141 162.472 240.966C162.359 240.616 162.186 240.12 161.938 239.527C161.444 238.341 160.653 236.758 159.463 235.172C157.078 231.992 153.082 228.793 146.707 228.793L146.707 229.793ZM129.589 241.65C130.055 241.83 130.055 241.83 130.055 241.83C130.055 241.83 130.055 241.83 130.055 241.83C130.055 241.83 130.055 241.829 130.056 241.829C130.056 241.828 130.057 241.826 130.058 241.824C130.06 241.819 130.063 241.811 130.067 241.801C130.075 241.779 130.089 241.747 130.107 241.704C130.143 241.618 130.198 241.49 130.272 241.327C130.422 240.999 130.651 240.528 130.964 239.961C131.59 238.826 132.551 237.314 133.889 235.803C136.563 232.783 140.716 229.793 146.707 229.793L146.707 228.793C140.342 228.793 135.937 231.982 133.14 235.14C131.743 236.719 130.741 238.295 130.088 239.477C129.762 240.069 129.522 240.563 129.363 240.911C129.283 241.085 129.224 241.223 129.184 241.318C129.164 241.365 129.149 241.402 129.139 241.428C129.134 241.441 129.13 241.451 129.127 241.458C129.126 241.461 129.125 241.464 129.124 241.466C129.123 241.467 129.123 241.468 129.123 241.469C129.123 241.469 129.123 241.469 129.123 241.469C129.122 241.47 129.122 241.47 129.589 241.65Z" fill="black"/>
<path fill-rule="evenodd" clip-rule="evenodd" d="M285.84 221.585L290.935 231.593C290.935 231.593 316.959 222.874 316.959 235.051V241.603C316.959 241.603 300.165 238.037 292.352 243.691C286.14 248.186 282.603 253.043 282.564 260.711C282.53 267.435 284.795 271.944 289.946 276.267C293.992 279.662 297.323 280.596 302.582 281.093C308.285 281.632 316.959 278.181 316.959 278.181V280.001H331.517V241.603C331.517 222.42 317.948 215.761 308.406 215.761C298.863 215.761 285.84 221.585 285.84 221.585ZM307.759 268.724C313.752 268.232 318.29 263.916 317.893 259.083C317.497 254.251 312.316 250.731 306.323 251.223C300.329 251.715 295.792 256.032 296.189 260.864C296.585 265.697 301.765 269.216 307.759 268.724Z" fill="black"/>
<path d="M290.935 231.593L290.489 231.82L290.685 232.205L291.094 232.068L290.935 231.593ZM285.84 221.585L285.636 221.128L285.156 221.343L285.394 221.812L285.84 221.585ZM316.959 241.603L316.855 242.092L317.459 242.22V241.603H316.959ZM292.352 243.691L292.645 244.096L292.645 244.096L292.352 243.691ZM282.564 260.711L283.064 260.713L282.564 260.711ZM289.946 276.267L290.267 275.884L290.267 275.884L289.946 276.267ZM302.582 281.093L302.629 280.595L302.629 280.595L302.582 281.093ZM316.959 278.181H317.459V277.444L316.774 277.717L316.959 278.181ZM316.959 280.001H316.459V280.501H316.959V280.001ZM331.517 280.001V280.501H332.017V280.001H331.517ZM308.406 215.761L308.406 215.261L308.406 215.761ZM317.893 259.083L318.391 259.042L318.391 259.042L317.893 259.083ZM307.759 268.724L307.8 269.223L307.8 269.223L307.759 268.724ZM306.323 251.223L306.282 250.725L306.282 250.725L306.323 251.223ZM296.189 260.864L295.69 260.905L295.69 260.905L296.189 260.864ZM291.38 231.367L286.286 221.358L285.394 221.812L290.489 231.82L291.38 231.367ZM317.459 235.051C317.459 233.435 317.025 232.128 316.237 231.102C315.453 230.081 314.347 229.375 313.065 228.904C310.515 227.969 307.169 227.928 303.896 228.258C300.609 228.591 297.329 229.307 294.876 229.937C293.649 230.253 292.626 230.548 291.909 230.764C291.55 230.872 291.268 230.961 291.075 231.022C290.978 231.053 290.904 231.077 290.854 231.094C290.829 231.102 290.809 231.108 290.796 231.113C290.79 231.115 290.785 231.116 290.781 231.118C290.78 231.118 290.778 231.119 290.777 231.119C290.777 231.119 290.777 231.119 290.776 231.119C290.776 231.119 290.776 231.119 290.935 231.593C291.094 232.068 291.094 232.068 291.094 232.068C291.094 232.067 291.094 232.067 291.094 232.067C291.095 232.067 291.096 232.067 291.098 232.066C291.1 232.065 291.105 232.064 291.111 232.062C291.123 232.058 291.141 232.052 291.165 232.044C291.213 232.028 291.285 232.005 291.379 231.975C291.567 231.915 291.844 231.828 292.197 231.721C292.903 231.508 293.913 231.217 295.125 230.906C297.552 230.282 300.779 229.579 303.997 229.253C307.23 228.927 310.39 228.988 312.72 229.843C313.877 230.268 314.805 230.878 315.444 231.711C316.079 232.539 316.459 233.623 316.459 235.051H317.459ZM317.459 241.603V235.051H316.459V241.603H317.459ZM292.645 244.096C294.514 242.744 296.946 241.926 299.578 241.472C302.206 241.019 305.001 240.934 307.567 241.026C310.132 241.118 312.457 241.385 314.141 241.629C314.982 241.751 315.663 241.867 316.132 241.952C316.367 241.995 316.548 242.03 316.671 242.055C316.732 242.067 316.779 242.076 316.81 242.082C316.825 242.086 316.837 242.088 316.844 242.09C316.848 242.09 316.851 242.091 316.852 242.091C316.853 242.092 316.854 242.092 316.854 242.092C316.855 242.092 316.855 242.092 316.855 242.092C316.855 242.092 316.855 242.092 316.959 241.603C317.062 241.114 317.062 241.114 317.062 241.114C317.062 241.114 317.062 241.113 317.061 241.113C317.061 241.113 317.06 241.113 317.059 241.113C317.056 241.112 317.053 241.112 317.049 241.111C317.04 241.109 317.027 241.106 317.011 241.103C316.978 241.096 316.929 241.086 316.865 241.074C316.738 241.048 316.551 241.012 316.311 240.969C315.832 240.881 315.139 240.763 314.284 240.639C312.575 240.391 310.213 240.12 307.603 240.027C304.994 239.934 302.126 240.018 299.408 240.486C296.694 240.954 294.097 241.811 292.059 243.286L292.645 244.096ZM283.064 260.713C283.083 256.962 283.956 253.922 285.57 251.271C287.189 248.614 289.57 246.321 292.645 244.096L292.059 243.286C288.923 245.555 286.429 247.939 284.716 250.751C282.999 253.57 282.084 256.792 282.064 260.708L283.064 260.713ZM290.267 275.884C287.73 273.755 285.928 271.6 284.761 269.173C283.595 266.747 283.047 264.017 283.064 260.713L282.064 260.708C282.046 264.129 282.614 267.016 283.86 269.606C285.104 272.195 287.01 274.456 289.624 276.65L290.267 275.884ZM302.629 280.595C300.016 280.348 297.917 279.996 295.979 279.297C294.047 278.6 292.253 277.55 290.267 275.884L289.624 276.65C291.685 278.379 293.58 279.494 295.639 280.237C297.693 280.978 299.889 281.341 302.535 281.591L302.629 280.595ZM316.959 278.181C316.774 277.717 316.774 277.717 316.774 277.717C316.774 277.717 316.774 277.717 316.774 277.717C316.773 277.717 316.773 277.717 316.773 277.717C316.772 277.717 316.77 277.718 316.768 277.719C316.765 277.72 316.759 277.723 316.751 277.726C316.735 277.732 316.711 277.741 316.679 277.754C316.616 277.778 316.521 277.814 316.399 277.86C316.154 277.953 315.796 278.084 315.349 278.24C314.455 278.552 313.203 278.963 311.776 279.357C308.904 280.15 305.384 280.856 302.629 280.595L302.535 281.591C305.483 281.869 309.152 281.119 312.042 280.321C313.496 279.92 314.769 279.502 315.679 279.184C316.134 279.025 316.499 278.891 316.751 278.797C316.876 278.749 316.974 278.712 317.04 278.686C317.074 278.673 317.099 278.663 317.116 278.657C317.125 278.653 317.132 278.651 317.136 278.649C317.138 278.648 317.14 278.647 317.141 278.647C317.142 278.646 317.142 278.646 317.143 278.646C317.143 278.646 317.143 278.646 317.143 278.646C317.143 278.646 317.143 278.646 316.959 278.181ZM317.459 280.001V278.181H316.459V280.001H317.459ZM331.517 279.501H316.959V280.501H331.517V279.501ZM331.017 241.603V280.001H332.017V241.603H331.017ZM308.406 216.261C313.071 216.261 318.727 217.891 323.208 221.862C327.676 225.821 331.017 232.14 331.017 241.603H332.017C332.017 231.882 328.574 225.28 323.872 221.114C319.183 216.96 313.282 215.261 308.406 215.261L308.406 216.261ZM285.84 221.585C286.044 222.041 286.044 222.041 286.044 222.041C286.044 222.041 286.044 222.041 286.044 222.041C286.045 222.041 286.045 222.041 286.046 222.04C286.047 222.04 286.05 222.039 286.053 222.037C286.059 222.035 286.068 222.031 286.08 222.025C286.104 222.015 286.14 221.999 286.189 221.978C286.285 221.936 286.428 221.874 286.614 221.795C286.985 221.637 287.528 221.411 288.209 221.139C289.572 220.596 291.488 219.872 293.7 219.148C298.137 217.696 303.716 216.261 308.406 216.261L308.406 215.261C303.552 215.261 297.849 216.738 293.389 218.198C291.152 218.93 289.216 219.661 287.839 220.21C287.15 220.485 286.601 220.714 286.223 220.874C286.034 220.955 285.888 221.018 285.789 221.061C285.739 221.083 285.701 221.099 285.676 221.111C285.663 221.116 285.653 221.121 285.646 221.124C285.643 221.125 285.64 221.126 285.639 221.127C285.638 221.127 285.637 221.128 285.637 221.128C285.636 221.128 285.636 221.128 285.636 221.128C285.636 221.128 285.636 221.128 285.84 221.585ZM317.395 259.124C317.761 263.587 313.542 267.748 307.718 268.226L307.8 269.223C313.963 268.717 318.818 264.245 318.391 259.042L317.395 259.124ZM306.364 251.722C312.188 251.244 317.029 254.661 317.395 259.124L318.391 259.042C317.965 253.84 312.445 250.219 306.282 250.725L306.364 251.722ZM296.687 260.823C296.321 256.361 300.54 252.199 306.364 251.722L306.282 250.725C300.119 251.231 295.263 255.702 295.69 260.905L296.687 260.823ZM307.718 268.226C301.894 268.704 297.053 265.286 296.687 260.823L295.69 260.905C296.117 266.108 301.637 269.728 307.8 269.223L307.718 268.226Z" fill="black"/>
<path d="M420.557 291.428V259.723L447.866 288.394V291.428H420.557Z" fill="#FB2B58"/>
</svg>
