<svg width="23" height="23" viewBox="0 0 23 23" fill="none" xmlns="http://www.w3.org/2000/svg">
<path d="M21.6406 21.3162L16.8151 16.4907M16.8151 16.4907C17.6405 15.6652 18.2953 14.6853 18.742 13.6069C19.1887 12.5284 19.4187 11.3725 19.4187 10.2052C19.4187 9.03786 19.1887 7.88196 18.742 6.8035C18.2953 5.72503 17.6405 4.74512 16.8151 3.91969C15.9897 3.09427 15.0098 2.43951 13.9313 1.9928C12.8529 1.54608 11.697 1.31616 10.5296 1.31616C9.36232 1.31616 8.20643 1.54608 7.12796 1.9928C6.0495 2.43951 5.06958 3.09427 4.24416 3.91969C2.57714 5.58671 1.64062 7.84766 1.64062 10.2052C1.64063 12.5627 2.57714 14.8236 4.24416 16.4907C5.91117 18.1577 8.17213 19.0942 10.5296 19.0942C12.8872 19.0942 15.1481 18.1577 16.8151 16.4907Z" stroke="#F8F8F8" stroke-width="2.5" stroke-linecap="round" stroke-linejoin="round"/>
</svg>
